<svg width="20" height="18" viewBox="0 0 20 18" fill="none" xmlns="http://www.w3.org/2000/svg">
<path d="M14 5.99991L9.99999 11.9999M19 9.99991C18.998 11.3435 18.6951 12.6696 18.1137 13.8809C17.5323 15.0922 16.687 16.1579 15.64 16.9999H4.35999C3.17406 16.0462 2.24932 14.8074 1.67223 13.3993C1.09513 11.9911 0.884526 10.4596 1.0601 8.94797C1.23568 7.43632 1.7917 5.99387 2.67619 4.75548C3.56068 3.51709 4.74474 2.52321 6.11769 1.86675C7.49063 1.21028 9.00762 0.912681 10.5268 1.00176C12.046 1.09084 13.5178 1.5637 14.8047 2.37612C16.0915 3.18854 17.1513 4.314 17.885 5.64727C18.6187 6.98055 19.0023 8.47809 19 9.99991V9.99991Z" stroke="black" stroke-width="1.5" stroke-linecap="round" stroke-linejoin="round"/>
</svg>
