<svg width="20" height="20" viewBox="0 0 20 20" fill="none" xmlns="http://www.w3.org/2000/svg">
<path d="M10 6H15M10 10H15M10 14H15M2 1H18C18.2652 1 18.5196 1.10536 18.7071 1.29289C18.8946 1.48043 19 1.73478 19 2V18C19 18.2652 18.8946 18.5196 18.7071 18.7071C18.5196 18.8946 18.2652 19 18 19H2C1.73478 19 1.48043 18.8946 1.29289 18.7071C1.10536 18.5196 1 18.2652 1 18V2C1 1.73478 1.10536 1.48043 1.29289 1.29289C1.48043 1.10536 1.73478 1 2 1V1Z" stroke="black" stroke-width="1.5" stroke-linecap="round" stroke-linejoin="round"/>
</svg>
