<svg width="20" height="20" viewBox="0 0 20 20" fill="none" xmlns="http://www.w3.org/2000/svg">
<path d="M19 10C19 11.78 18.4722 13.5201 17.4832 15.0001C16.4943 16.4802 15.0887 17.6337 13.4442 18.3149C11.7996 18.9961 9.99002 19.1743 8.24419 18.8271C6.49836 18.4798 4.89472 17.6226 3.63604 16.364C2.37737 15.1053 1.5202 13.5016 1.17294 11.7558C0.82567 10.01 1.0039 8.20038 1.68509 6.55585C2.36628 4.91131 3.51983 3.50571 4.99987 2.51677C6.47991 1.52784 8.21997 1 10 1C12.387 1 14.6761 1.94821 16.364 3.63604C18.0518 5.32387 19 7.61305 19 10V10ZM10 6C9.20888 6 8.43552 6.2346 7.77772 6.67412C7.11993 7.11365 6.60724 7.73836 6.30449 8.46927C6.00174 9.20017 5.92252 10.0044 6.07686 10.7804C6.2312 11.5563 6.61217 12.269 7.17158 12.8284C7.73099 13.3878 8.44372 13.7688 9.21964 13.9231C9.99557 14.0775 10.7998 13.9983 11.5307 13.6955C12.2616 13.3928 12.8864 12.8801 13.3259 12.2223C13.7654 11.5645 14 10.7911 14 10C14 8.93913 13.5786 7.92172 12.8284 7.17157C12.0783 6.42143 11.0609 6 10 6V6Z" stroke="black" stroke-width="1.5" stroke-linecap="round" stroke-linejoin="round"/>
</svg>
