<svg width="13" height="12" viewBox="0 0 13 12" fill="none" xmlns="http://www.w3.org/2000/svg">
<path d="M11.5 10H1.5C1.23478 10 0.98043 10.1054 0.792893 10.2929C0.605357 10.4804 0.5 10.7348 0.5 11C0.5 11.2652 0.605357 11.5196 0.792893 11.7071C0.98043 11.8946 1.23478 12 1.5 12H11.5C11.7652 12 12.0196 11.8946 12.2071 11.7071C12.3946 11.5196 12.5 11.2652 12.5 11C12.5 10.7348 12.3946 10.4804 12.2071 10.2929C12.0196 10.1054 11.7652 10 11.5 10Z" fill="black"/>
<path d="M5.99998 7.99992H6.99998C7.13259 7.99992 7.25977 7.94724 7.35353 7.85347C7.4473 7.7597 7.49998 7.63253 7.49998 7.49992V4.99992H9.99998C10.096 4.99982 10.1899 4.9721 10.2705 4.92006C10.3512 4.86802 10.4152 4.79386 10.4548 4.70645C10.4945 4.61903 10.5081 4.52205 10.4941 4.42709C10.4802 4.33213 10.4391 4.2432 10.376 4.17092L6.87598 0.170917C6.82773 0.119578 6.76948 0.078664 6.70481 0.0506965C6.64014 0.0227291 6.57043 0.00830078 6.49998 0.00830078C6.42953 0.00830078 6.35982 0.0227291 6.29515 0.0506965C6.23048 0.078664 6.17223 0.119578 6.12398 0.170917L2.62398 4.17092C2.56082 4.2432 2.5198 4.33213 2.50582 4.42709C2.49184 4.52205 2.50549 4.61903 2.54514 4.70645C2.58478 4.79386 2.64876 4.86802 2.72941 4.92006C2.81006 4.9721 2.90399 4.99982 2.99998 4.99992H5.49998V7.49992C5.49998 7.63253 5.55266 7.7597 5.64643 7.85347C5.74019 7.94724 5.86737 7.99992 5.99998 7.99992Z" fill="black"/>
</svg>
