<svg width="18" height="18" viewBox="0 0 18 18" fill="none" xmlns="http://www.w3.org/2000/svg">
<path d="M0.25 17.5752V4.0752H4.25V0.0751953H13.75V8.0752H17.75V17.5752H10.25V13.5752H7.75V17.5752H0.25ZM1.75 16.0752H4.25V13.5752H1.75V16.0752ZM1.75 12.0752H4.25V9.5752H1.75V12.0752ZM1.75 8.0752H4.25V5.5752H1.75V8.0752ZM5.75 12.0752H8.25V9.5752H5.75V12.0752ZM5.75 8.0752H8.25V5.5752H5.75V8.0752ZM5.75 4.0752H8.25V1.5752H5.75V4.0752ZM9.75 12.0752H12.25V9.5752H9.75V12.0752ZM9.75 8.0752H12.25V5.5752H9.75V8.0752ZM9.75 4.0752H12.25V1.5752H9.75V4.0752ZM13.75 16.0752H16.25V13.5752H13.75V16.0752ZM13.75 12.0752H16.25V9.5752H13.75V12.0752Z" fill="black"/>
</svg>
