<svg width="13" height="15" viewBox="0 0 13 15" fill="none" xmlns="http://www.w3.org/2000/svg">
<path d="M1.75 15C1.3375 15 0.98425 14.8533 0.69025 14.5597C0.39675 14.2657 0.25 13.9125 0.25 13.5V3H1.75V13.5H10V15H1.75ZM4.75 12C4.3375 12 3.9845 11.8533 3.691 11.5597C3.397 11.2657 3.25 10.9125 3.25 10.5V1.5C3.25 1.0875 3.397 0.73425 3.691 0.44025C3.9845 0.14675 4.3375 0 4.75 0H11.5C11.9125 0 12.2657 0.14675 12.5597 0.44025C12.8533 0.73425 13 1.0875 13 1.5V10.5C13 10.9125 12.8533 11.2657 12.5597 11.5597C12.2657 11.8533 11.9125 12 11.5 12H4.75ZM4.75 10.5H11.5V1.5H4.75V10.5Z" fill="black"/>
</svg>
