<svg width="15" height="17" viewBox="0 0 15 17" fill="none" xmlns="http://www.w3.org/2000/svg">
<path d="M12.4933 6.60107C12.4933 6.60107 12.0861 11.6523 11.8498 13.7801C11.7373 14.7963 11.1096 15.3918 10.0813 15.4106C8.1246 15.4458 6.1656 15.4481 4.2096 15.4068C3.22035 15.3866 2.6031 14.7836 2.49285 13.7853C2.2551 11.6388 1.8501 6.60107 1.8501 6.60107" stroke="black" stroke-width="1.5" stroke-linecap="round" stroke-linejoin="round"/>
<path d="M13.531 4.17969H0.8125" stroke="black" stroke-width="1.5" stroke-linecap="round" stroke-linejoin="round"/>
<path d="M11.0804 4.17974C10.4917 4.17974 9.98468 3.76349 9.86918 3.18674L9.68693 2.27474C9.57443 1.85399 9.19343 1.56299 8.75918 1.56299H5.58443C5.15018 1.56299 4.76918 1.85399 4.65668 2.27474L4.47443 3.18674C4.35893 3.76349 3.85193 4.17974 3.26318 4.17974" stroke="black" stroke-width="1.5" stroke-linecap="round" stroke-linejoin="round"/>
</svg>
