<svg width="18" height="18" viewBox="0 0 18 18" fill="none" xmlns="http://www.w3.org/2000/svg">
<path d="M5 14C5.28333 14 5.521 13.904 5.713 13.712C5.90433 13.5207 6 13.2833 6 13C6 12.7167 5.90433 12.479 5.713 12.287C5.521 12.0957 5.28333 12 5 12C4.71667 12 4.479 12.0957 4.287 12.287C4.09567 12.479 4 12.7167 4 13C4 13.2833 4.09567 13.5207 4.287 13.712C4.479 13.904 4.71667 14 5 14ZM5 10C5.28333 10 5.521 9.904 5.713 9.712C5.90433 9.52067 6 9.28333 6 9C6 8.71667 5.90433 8.479 5.713 8.287C5.521 8.09567 5.28333 8 5 8C4.71667 8 4.479 8.09567 4.287 8.287C4.09567 8.479 4 8.71667 4 9C4 9.28333 4.09567 9.52067 4.287 9.712C4.479 9.904 4.71667 10 5 10ZM5 6C5.28333 6 5.521 5.904 5.713 5.712C5.90433 5.52067 6 5.28333 6 5C6 4.71667 5.90433 4.479 5.713 4.287C5.521 4.09567 5.28333 4 5 4C4.71667 4 4.479 4.09567 4.287 4.287C4.09567 4.479 4 4.71667 4 5C4 5.28333 4.09567 5.52067 4.287 5.712C4.479 5.904 4.71667 6 5 6ZM8 14H14V12H8V14ZM8 10H14V8H8V10ZM8 6H14V4H8V6ZM2 18C1.45 18 0.979 17.8043 0.587 17.413C0.195667 17.021 0 16.55 0 16V2C0 1.45 0.195667 0.979 0.587 0.587C0.979 0.195667 1.45 0 2 0H16C16.55 0 17.021 0.195667 17.413 0.587C17.8043 0.979 18 1.45 18 2V16C18 16.55 17.8043 17.021 17.413 17.413C17.021 17.8043 16.55 18 16 18H2ZM2 16H16V2H2V16Z" fill="#1C1B1F"/>
</svg>
