<svg width="28" height="28" viewBox="0 0 28 28" fill="none" xmlns="http://www.w3.org/2000/svg">
<path d="M14 28C11.2311 28 8.52431 27.1789 6.22203 25.6406C3.91974 24.1022 2.12532 21.9157 1.06569 19.3576C0.00606564 16.7994 -0.271181 13.9845 0.269012 11.2687C0.809205 8.55301 2.14258 6.05845 4.10051 4.10051C6.05845 2.14258 8.55301 0.809205 11.2687 0.269012C13.9845 -0.271181 16.7994 0.00606597 19.3576 1.06569C21.9157 2.12532 24.1022 3.91973 25.6406 6.22202C27.1789 8.52431 28 11.2311 28 14C28.0004 15.8386 27.6386 17.6593 26.9352 19.3581C26.2318 21.0569 25.2006 22.6004 23.9005 23.9005C22.6004 25.2006 21.0569 26.2318 19.3581 26.9352C17.6593 27.6386 15.8386 28.0004 14 28ZM14 25.2007C16.5914 25.2015 19.1029 24.3037 21.1065 22.6603C23.1102 21.017 24.482 18.7297 24.9883 16.1883C25.4945 13.6468 25.1039 11.0085 23.883 8.72273C22.662 6.437 20.6863 4.64535 18.2924 3.65304C15.8986 2.66074 13.2347 2.52919 10.7547 3.28081C8.27473 4.03243 6.13209 5.62071 4.69189 7.77502C3.25168 9.92933 2.60302 12.5164 2.85643 15.0953C3.10984 17.6743 4.24965 20.0856 6.08164 21.9184C7.12082 22.9593 8.35513 23.785 9.71388 24.3483C11.0726 24.9115 12.5291 25.2012 14 25.2007ZM7.00341 15.4014H9.80272C9.83383 16.4943 10.2899 17.5321 11.0739 18.2941C11.858 19.0562 12.9083 19.4825 14.0017 19.4825C15.0951 19.4825 16.1454 19.0562 16.9295 18.2941C17.7135 17.5321 18.1696 16.4943 18.2007 15.4014H21C21.0206 16.3334 20.8547 17.2601 20.5123 18.1272C20.1698 18.9942 19.6576 19.7841 19.0057 20.4506C18.3538 21.117 17.5754 21.6465 16.7161 22.008C15.8568 22.3694 14.9339 22.5557 14.0017 22.5557C13.0695 22.5557 12.1466 22.3694 11.2873 22.008C10.428 21.6465 9.64959 21.117 8.9977 20.4506C8.34582 19.7841 7.83361 18.9942 7.49115 18.1272C7.14868 17.2601 6.98286 16.3334 7.00341 15.4014ZM8.40136 12.5884C8.05534 12.589 7.71453 12.5041 7.40919 12.3413C7.10384 12.1786 6.8434 11.9429 6.65098 11.6553C6.45856 11.3677 6.34011 11.0371 6.30614 10.6927C6.27218 10.3484 6.32375 10.001 6.45627 9.68133C6.5888 9.36169 6.79819 9.07971 7.06585 8.86041C7.33351 8.64111 7.65116 8.49128 7.99063 8.42422C8.33009 8.35715 8.68086 8.37493 9.01181 8.47597C9.34276 8.577 9.64364 8.75818 9.88776 9.00341C10.1806 9.29756 10.3798 9.67181 10.4602 10.079C10.5407 10.4862 10.4988 10.9081 10.3398 11.2915C10.1808 11.6749 9.91191 12.0026 9.56695 12.2335C9.22199 12.4643 8.81642 12.5878 8.40136 12.5884ZM19.5986 12.5884C19.1123 12.5884 18.6411 12.4198 18.2651 12.1113C17.8892 11.8027 17.6319 11.3734 17.537 10.8964C17.4422 10.4195 17.5156 9.92435 17.7449 9.49546C17.9741 9.06657 18.345 8.73044 18.7943 8.54435C19.2436 8.35825 19.7436 8.3337 20.2089 8.47488C20.6743 8.61607 21.0763 8.91424 21.3465 9.3186C21.6167 9.72297 21.7383 10.2085 21.6906 10.6925C21.6429 11.1765 21.4289 11.6289 21.085 11.9728C20.89 12.1681 20.6582 12.3231 20.4032 12.4287C20.1481 12.5344 19.8747 12.5886 19.5986 12.5884Z" fill="#D8D8D8"/>
</svg>
