<svg width="28" height="28" viewBox="0 0 28 28" fill="none" xmlns="http://www.w3.org/2000/svg">
<path d="M14 28C11.2311 28 8.52431 27.1789 6.22203 25.6406C3.91974 24.1022 2.12532 21.9157 1.06569 19.3576C0.00606183 16.7994 -0.271179 13.9845 0.269014 11.2687C0.809207 8.55301 2.14257 6.05845 4.10051 4.10051C6.05844 2.14258 8.55301 0.809205 11.2687 0.269012C13.9845 -0.271181 16.7994 0.00606597 19.3576 1.06569C21.9157 2.12532 24.1022 3.91973 25.6406 6.22202C27.1789 8.52431 28 11.2311 28 14C28.0004 15.8386 27.6386 17.6593 26.9352 19.3581C26.2318 21.0569 25.2006 22.6004 23.9005 23.9005C22.6004 25.2006 21.0569 26.2318 19.3581 26.9352C17.6593 27.6386 15.8386 28.0004 14 28ZM14 25.2007C16.5914 25.2015 19.1029 24.3037 21.1065 22.6603C23.1102 21.017 24.482 18.7297 24.9883 16.1883C25.4945 13.6468 25.1039 11.0085 23.883 8.72273C22.662 6.437 20.6863 4.64535 18.2924 3.65304C15.8986 2.66074 13.2347 2.52919 10.7547 3.28081C8.27472 4.03243 6.13209 5.62071 4.69188 7.77502C3.25168 9.92933 2.60301 12.5164 2.85643 15.0953C3.10984 17.6743 4.24965 20.0856 6.08164 21.9184C7.12104 22.959 8.35539 23.7845 9.71409 24.3477C11.0728 24.9109 12.5292 25.2008 14 25.2007ZM8.41157 15.4014H19.6089C19.6089 16.8862 19.019 18.3103 17.969 19.3602C16.9191 20.4101 15.4951 21 14.0102 21C12.5254 21 11.1013 20.4101 10.0514 19.3602C9.00142 18.3103 8.41157 16.8862 8.41157 15.4014Z" fill="#D8D8D8"/>
<path d="M19.403 7.61573C19.4156 7.5728 19.4419 7.53512 19.4777 7.50832C19.5136 7.48152 19.5572 7.46704 19.6019 7.46704C19.6467 7.46704 19.6903 7.48152 19.7261 7.50832C19.762 7.53512 19.7882 7.5728 19.8009 7.61573L20.4812 9.75859C20.4944 9.80135 20.5211 9.8387 20.5572 9.86506C20.5934 9.89141 20.6371 9.90537 20.6819 9.90485H22.9336C22.978 9.90407 23.0216 9.91759 23.0577 9.94341C23.0939 9.96924 23.1209 10.006 23.1346 10.0483C23.1483 10.0906 23.1481 10.1362 23.1339 10.1783C23.1198 10.2205 23.0925 10.2569 23.056 10.2824L21.2329 11.6089C21.1974 11.6353 21.1711 11.6721 21.1576 11.7142C21.1442 11.7563 21.1444 11.8016 21.1581 11.8436L21.8383 13.9831C21.854 14.0255 21.8553 14.0719 21.8422 14.1151C21.8291 14.1584 21.8022 14.1961 21.7656 14.2227C21.729 14.2493 21.6848 14.2632 21.6396 14.2623C21.5944 14.2614 21.5507 14.2458 21.5152 14.2178L19.6955 12.8946C19.6594 12.8684 19.6159 12.8542 19.5713 12.8542C19.5267 12.8542 19.4832 12.8684 19.4472 12.8946L17.6275 14.2178C17.5924 14.2515 17.5468 14.272 17.4983 14.2759C17.4499 14.2798 17.4016 14.2669 17.3616 14.2393C17.3216 14.2117 17.2923 14.1711 17.2788 14.1244C17.2653 14.0777 17.2683 14.0278 17.2873 13.9831L17.9676 11.8436C17.9813 11.8016 17.9814 11.7563 17.968 11.7142C17.9546 11.6721 17.9283 11.6353 17.8928 11.6089L16.0696 10.2824C16.0332 10.2569 16.0059 10.2205 15.9917 10.1783C15.9776 10.1362 15.9774 10.0906 15.9911 10.0483C16.0048 10.006 16.0317 9.96924 16.0679 9.94341C16.1041 9.91759 16.1476 9.90407 16.1921 9.90485H18.4438C18.4885 9.90537 18.5323 9.89141 18.5684 9.86506C18.6046 9.8387 18.6313 9.80135 18.6445 9.75859L19.403 7.61573Z" fill="#D8D8D8"/>
<path d="M8.20002 7.61556C8.21373 7.57312 8.24054 7.53612 8.2766 7.50987C8.31265 7.48362 8.3561 7.46948 8.4007 7.46948C8.4453 7.46948 8.48875 7.48362 8.52481 7.50987C8.56086 7.53612 8.58767 7.57312 8.60138 7.61556L9.28165 9.75842C9.29533 9.80089 9.32212 9.83794 9.35818 9.86422C9.39424 9.8905 9.43771 9.90466 9.48233 9.90468H11.734C11.7788 9.90313 11.8228 9.9161 11.8596 9.94164C11.8964 9.96719 11.9239 10.0039 11.938 10.0464C11.9522 10.0889 11.9522 10.1348 11.9381 10.1773C11.9241 10.2198 11.8966 10.2566 11.8599 10.2822L10.0368 11.6088C9.99997 11.634 9.97264 11.6708 9.95909 11.7133C9.94554 11.7558 9.94654 11.8016 9.96192 11.8435L10.6422 13.9829C10.6578 14.0253 10.6592 14.0717 10.646 14.1149C10.6329 14.1582 10.606 14.196 10.5694 14.2225C10.5329 14.2491 10.4886 14.263 10.4434 14.2621C10.3982 14.2612 10.3546 14.2456 10.3191 14.2176L8.49594 12.8945C8.46061 12.868 8.41765 12.8537 8.3735 12.8537C8.32934 12.8537 8.28637 12.868 8.25104 12.8945L6.42792 14.2176C6.39194 14.243 6.3489 14.2565 6.30484 14.2563C6.26079 14.256 6.21792 14.2419 6.18227 14.216C6.14663 14.1901 6.11998 14.1537 6.10608 14.1119C6.09219 14.0701 6.09173 14.025 6.10479 13.9829L6.80206 11.8435C6.81595 11.8011 6.81584 11.7554 6.80175 11.7132C6.78766 11.6709 6.76035 11.6343 6.72384 11.6088L4.90411 10.2822C4.86766 10.2568 4.84035 10.2203 4.82621 10.1781C4.81206 10.136 4.81184 10.0904 4.82555 10.0481C4.83927 10.0058 4.86621 9.96906 4.9024 9.94324C4.93858 9.91741 4.9821 9.9039 5.02655 9.90468H7.27826C7.32301 9.9052 7.36673 9.89124 7.40289 9.86488C7.43906 9.83853 7.46573 9.80118 7.47894 9.75842L8.20002 7.61556Z" fill="#D8D8D8"/>
</svg>
