<svg width="28" height="28" viewBox="0 0 28 28" fill="none" xmlns="http://www.w3.org/2000/svg">
<path d="M14 28C11.2311 28 8.52431 27.1789 6.22202 25.6406C3.91973 24.1022 2.12532 21.9157 1.06569 19.3576C0.00606561 16.7994 -0.271181 13.9845 0.269012 11.2687C0.809205 8.55301 2.14258 6.05845 4.10051 4.10051C6.05845 2.14258 8.55301 0.809205 11.2687 0.269012C13.9845 -0.271181 16.7994 0.00606601 19.3576 1.06569C21.9157 2.12532 24.1022 3.91974 25.6406 6.22202C27.1789 8.52431 28 11.2311 28 14C28.0004 15.8386 27.6386 17.6593 26.9352 19.3581C26.2318 21.0569 25.2006 22.6004 23.9005 23.9005C22.6004 25.2006 21.0569 26.2318 19.3581 26.9352C17.6593 27.6386 15.8386 28.0005 14 28ZM14 25.2007C16.5914 25.2015 19.1029 24.3037 21.1065 22.6603C23.1102 21.017 24.482 18.7297 24.9883 16.1883C25.4945 13.6468 25.1039 11.0085 23.883 8.72273C22.662 6.437 20.6863 4.64535 18.2924 3.65305C15.8986 2.66074 13.2347 2.52919 10.7547 3.28081C8.27473 4.03243 6.13209 5.62071 4.69188 7.77502C3.25167 9.92934 2.60302 12.5164 2.85643 15.0953C3.10984 17.6743 4.24965 20.0856 6.08164 21.9184C7.12082 22.9593 8.35512 23.785 9.71387 24.3483C11.0726 24.9115 12.5291 25.2012 14 25.2007ZM8.40136 16.7993H19.5986V19.5986H8.40136V16.7993ZM8.40136 12.602C7.91686 12.6014 7.44757 12.4328 7.07336 12.1251C6.69915 11.8173 6.44316 11.3894 6.34897 10.9141C6.25478 10.4389 6.32821 9.94567 6.55676 9.51846C6.7853 9.09125 7.15484 8.75645 7.60247 8.57105C8.05009 8.38565 8.54814 8.3611 9.01182 8.5016C9.4755 8.6421 9.87617 8.93895 10.1456 9.34162C10.415 9.7443 10.5366 10.2279 10.4896 10.7101C10.4426 11.1923 10.2299 11.6434 9.88776 11.9864C9.69178 12.1796 9.45961 12.3322 9.20455 12.4355C8.94948 12.5388 8.67654 12.5908 8.40136 12.5884V12.602ZM19.5986 12.5884C19.1123 12.5884 18.6411 12.4198 18.2651 12.1113C17.8892 11.8027 17.6319 11.3734 17.537 10.8964C17.4422 10.4195 17.5156 9.92435 17.7449 9.49546C17.9741 9.06658 18.345 8.73045 18.7943 8.54435C19.2436 8.35826 19.7436 8.33371 20.2089 8.47489C20.6743 8.61607 21.0763 8.91424 21.3465 9.31861C21.6167 9.72297 21.7383 10.2085 21.6906 10.6925C21.6429 11.1765 21.4289 11.6289 21.085 11.9728C20.89 12.1681 20.6582 12.3231 20.4032 12.4287C20.1481 12.5344 19.8747 12.5886 19.5986 12.5884Z" fill="#D8D8D8"/>
</svg>
