<svg width="346" height="133" viewBox="0 0 346 133" fill="none" xmlns="http://www.w3.org/2000/svg">
<path d="M65.3 97.5999C64.8 97.7999 64.2999 97.8999 63.7999 98.0999C64.2 97.9999 64.7 97.7999 65.3 97.5999ZM13.7 69.1999C13.7 69.8999 13.7 70.4999 13.8 71.1999C13.8 71.3999 13.8 71.6 13.9 71.8C13.9 72.2 14 72.6999 14 73.0999L14.1 73.8C14.1 74.2 14.2 74.5999 14.3 75.0999C14.3 75.2999 14.4 75.5 14.4 75.8C14.5 76.3 14.6 76.6999 14.7 77.1999C14.7 77.3999 14.8 77.4999 14.8 77.6999C14.9 78.2999 15.1 78.9 15.3 79.5C15.3 79.7 15.4 79.7999 15.4 80C15.5 80.4 15.7 80.9 15.8 81.3L16 82C16.1 82.4 16.3 82.6999 16.4 83.0999C16.5 83.5 16.6 83.6 16.7 83.8C16.8 84 17 84.5 17.2 84.9L17.5 85.5999C17.7 86.0999 18 86.5 18.2 87C18.3 87.2 18.4 87.3999 18.5 87.5999C18.7 88 19 88.5 19.2 88.9C19.3 89.1 19.5 89.3999 19.6 89.5999C19.7 89.7999 20 90.2 20.2 90.5C20.4 90.7999 20.5 90.9999 20.7 91.1999C20.9 91.3999 21.1 91.8 21.3 92C21.5 92.2 21.7 92.5 21.8 92.7C21.9 92.8999 22.2 93.2 22.4 93.5L22.9 94.2C23.3 94.6 23.7 95.1 24 95.5L24.7 96.2L25.3 96.8C25.6 97.1 25.8 97.2999 26.1 97.5999L26.7 98.2L27.5 98.8999L28.1 99.3999C28.4 99.7 28.7 99.8999 29 100.2L29.4 100.5C30.1 101.1 30.8 101.6 31.6 102.1L31.9 102.3C32.3 102.5 32.6 102.8 33 103L33.5 103.3L34.5999 104L35.0999 104.3C35.4999 104.5 35.9 104.7 36.2999 105L36.7 105.2C38.1 105.9 39.5 106.6 41 107.2L41.2999 107.3L42.5999 107.8L43.0999 108C43.5999 108.2 44 108.3 44.5 108.4L44.9 108.5C49.6 110 54.5999 110.7 59.5 110.7C77.3999 110.7 92.9 101.3 100.4 87.5999C100.3 75.9999 94.7 65.2 85.3 58.4V58.5C78.2 53.2 69.6 50.2999 60.7 50.2999C53.5 50.2999 47.8 50.8 40.9 55.4C40.9 55.4 36.4 59.1999 39.4 62.2999C41.9 64.8999 46.9 61.4 46.9 61.4C50.1 59.6 53.7 58.5999 57.2999 58.5999C68.3999 58.2999 77.6 67.0999 77.9 78.1999C78.1 87.1999 72.2999 95.2999 63.7 97.8999C63.6 97.8999 63.5 98 63.5 98C63.0999 98.1 62.7 98.2 62.4 98.3C61.1 98.6 59.7 98.7999 58.4 98.8999H57.4H56.2999L56.2 99L54.7 98.8999H54.5L53 99H52.7C52.2999 98.9 51.9 98.9 51.5 98.8L51 98.5999C50.5 98.4999 50 98.3999 49.5 98.2C34.7 94 26.5 77.2 31.2 60.5999C35.9 43.9999 51.7 34 66.5 38.2C67 38.3 67.5999 38.5 68.0999 38.7C68.2999 38.7 68.3999 38.8 68.5999 38.9L69.6999 39.4C69.8999 39.5 69.9999 39.4999 70.1999 39.5999C70.5999 39.7999 71 40 71.4 40.2L71.6999 40.4C72.1999 40.7 72.6999 40.9 73.0999 41.2C73.1999 41.3 73.3 41.3 73.4 41.4C73.8 41.6 74.2 41.9 74.5 42.2L74.9 42.5C75.2 42.8 75.6 42.9999 75.9 43.2999L76.1999 43.5C76.9999 44.2 77.9 45 78.6 45.7999L78.8 46C79.1 46.4 79.4 46.6999 79.8 47.0999C79.9 47.1999 79.9 47.1999 80 47.2999C81.1 48.6999 82 50.2 82.8 51.7L82.9 51.7999C83.5 53 84.1 54.2999 84.5 55.5999C94.4 61.6999 101 72.2999 102 84.0999C102.7 82.5 103.2 80.9 103.7 79.3V79.0999C103.9 78.3999 104 77.7999 104.2 77.0999C104.2 76.8999 104.3 76.7 104.3 76.5C104.4 75.9 104.5 75.4 104.6 74.8C104.6 74.6 104.7 74.2999 104.7 74.0999C104.8 73.5 104.8 73 104.9 72.4C104.9 72.2 104.9 71.8999 105 71.6999C105.1 70.8999 105.1 70.1 105.1 69.3C105.1 46.3 84.6 27.7 59.4 27.7C34.2 27.7 13.7 46.1999 13.7 69.1999Z" fill="#DBAC17"/>
<path d="M119.3 65.6V75.9001C119.3 76.7001 119.4 77.4 119.8 78.1C120.1 78.6 120.8 78.9001 121.9 78.9001H124.1C124.8 79 125.4 78.7 125.8 78.1C126.1 77.4 126.2 76.6001 126.2 75.8001V64.5H123.3V62.8H127.8V69.4001V77.1C127.8 77.9 127.6 78.8001 127.1 79.4001C126.7 80 126.1 80.4001 125.3 80.5H120.5C119.6 80.5 118.7 80.1001 118.2 79.3001C117.8 78.5001 117.5 77.6001 117.5 76.8001V49.1C117.5 48.2 117.7 47.3 118.2 46.5C118.7 45.7 119.6 45.3 120.5 45.3H125.3C126.1 45.3 126.9 45.7001 127.3 46.4001C127.7 47.1001 127.9 47.9001 127.9 48.7001V56.4001H126.2V50C126.2 49.2 126.1 48.4001 125.8 47.7001C125.6 47.2001 125 46.9001 124.1 46.9001H121C120.4 46.9001 119.9 47.2001 119.7 47.7001C119.4 48.4001 119.2 49.1001 119.2 49.9001V65.6H119.3Z" fill="#DBAC17"/>
<path d="M140.6 65.6V75.9001C140.6 76.7001 140.7 77.5 141.1 78.2C141.4 78.7 142.1 79 143.2 79H145.4C146.1 79.1 146.7 78.8 147.1 78.2C147.4 77.5 147.6 76.7001 147.6 76V50.1C147.6 49.3 147.5 48.5 147.2 47.8C147 47.3 146.4 47 145.5 47H142.3C141.8 47 141.3 47.3 141 47.8C140.7 48.5 140.5 49.2 140.5 50L140.6 65.6ZM149.1 76.8001C149.1 77.8001 148.8 78.7001 148.1 79.4001C147.5 80.1001 146.6 80.5 145.7 80.5H141.7C140.8 80.5 139.9 80.1001 139.4 79.3001C138.9 78.5001 138.7 77.7001 138.7 76.8001V49.1C138.7 48.2 138.9 47.3 139.4 46.5C139.9 45.7 140.8 45.3 141.7 45.3H146.2C147.1 45.3 148 45.7 148.4 46.5C148.8 47.2 149 48 149 48.8V56.5L149.1 76.8001Z" fill="#DBAC17"/>
<path d="M160.2 80.6V45.4H162V78.8H170.5L170.6 80.6H160.2Z" fill="#DBAC17"/>
<path d="M182.6 79.1H184.6C185.3 78.9 185.9 78.6 186.4 78.2C187.1 77.2 187.7 76.1 188.1 74.9C188.7 73.3 189.2 71.6 189.3 69.9C189.4 68.3 189.6 66 189.8 62.9C189.8 59.5 189.5 56.1 188.9 52.8C188.7 51 187.9 49.3 186.7 48C186.2 47.5 185.5 47.2 184.7 47.2H182.7L182.6 79.1ZM181 80.6V45.6H185.4C186 45.6 186.7 45.8 187.2 46.1C188 46.8 188.8 47.7 189.4 48.6C190.2 50.5 190.7 52.5 190.9 54.5C191.3 57.3 191.4 60 191.4 62.8C191.4 65.2 191.3 67.5 191.1 69.9C191 71.6 190.6 73.3 190.1 74.9C189.7 76 189.2 77 188.6 78C188.2 78.6 187.8 79.2 187.3 79.8C186.7 80.3 185.9 80.6 185.1 80.6H181Z" fill="#DBAC17"/>
<path d="M202.5 80.6V45.5H212.5V47.1H204.2V61.6H211.8V63.5H204.2V78.9H212.8V80.6H202.5Z" fill="#DBAC17"/>
<path d="M223.8 45.5L225.7 45.4L232.4 72.1V45.4H234.1V80.6H232.7L225.6 52.6V80.6H223.8V45.5Z" fill="#DBAC17"/>
<path d="M263.9 65.6V75.9001C263.9 76.7001 264 77.5 264.4 78.2C264.7 78.7 265.4 79 266.5 79H268.7C269.4 79.1 270 78.8 270.4 78.2C270.7 77.5 270.8 76.7001 270.8 75.9001V64.6H267.9V62.9001H272.4V69.5V77.2C272.4 78 272.2 78.9001 271.7 79.5C271.3 80.1 270.7 80.5 270 80.6H265.2C264.3 80.6 263.4 80.2001 262.9 79.4001C262.5 78.6001 262.2 77.7001 262.2 76.9001V49.1C262.2 48.2 262.4 47.3 262.9 46.5C263.4 45.7 264.3 45.3 265.2 45.3H270C270.8 45.3 271.6 45.7001 272 46.4001C272.4 47.1001 272.6 47.9001 272.5 48.7001V56.4001H271V50C271 49.2 270.9 48.4001 270.6 47.7001C270.4 47.2001 269.8 46.9001 268.9 46.9001H265.7C265.2 46.9001 264.7 47.2001 264.4 47.7001C264.1 48.4001 263.9 49.1001 263.9 49.9001V65.6Z" fill="#DBAC17"/>
<path d="M289.2 52.5L285.4 80.6H283.4L288.8 45.4H290.7L296.5 80.6H294.3L289.6 48.9L289.2 52.5Z" fill="#DBAC17"/>
<path d="M306.8 45.4H311.9H317.1V47.1H315.3H312.6V80.6H311V47.1H308.6H306.8V45.4Z" fill="#DBAC17"/>
<path d="M328.1 80.6V45.5H338.2L338.1 47.1H329.9V61.6H337.5V63.5H329.9V78.9H338.4L338.5 80.6H328.1Z" fill="#DBAC17"/>
<path d="M118 88.6H119.8C120.3 88.6 120.9 88.6 121.4 88.7C121.9 88.8 122.3 89.2 122.6 89.6C123 90.2 123.2 91 123.1 91.7C123.2 92.5 122.9 93.3 122.4 94C121.9 94.5 121.2 94.8 120.4 94.8L123.5 100.7H122.2L119.3 94.8V100.7H118V88.6ZM119.2 89.6V93.9H119.7C120.1 93.9 120.6 93.8 121 93.7C121.3 93.6 121.5 93.3 121.6 93C121.7 92.6 121.8 92.1 121.8 91.7C121.9 91.1 121.7 90.5 121.4 90C121 89.7 120.5 89.5 119.9 89.6H119.2Z" fill="#DBAC17"/>
<path d="M136.8 88.6V89.6H133.8V93.9H136.8V95H133.8V99.8H136.8V100.8H132.5V88.6H136.8Z" fill="#DBAC17"/>
<path d="M146.1 100.4V98.9C146.7 99.5 147.5 99.9 148.4 99.9C149 99.9 149.5 99.7 149.9 99.2C150.3 98.8 150.5 98.3 150.5 97.8C150.5 97.4 150.4 96.9 150.2 96.5C150 96.1 149.6 95.7 149.2 95.5L147.9 94.7C147.5 94.4 147.1 94.1 146.7 93.8C146.4 93.5 146.2 93.2 146 92.8C145.8 92.4 145.7 91.9 145.7 91.4C145.7 90.3 146.4 89.2 147.4 88.7C147.9 88.5 148.4 88.4 148.9 88.4C149.7 88.4 150.4 88.6 151 89V90.5C150.7 90.2 150.4 90 150.1 89.8C149.8 89.6 149.4 89.5 149 89.5C148.4 89.5 147.9 89.7 147.5 90.1C147.1 90.5 146.9 91 146.9 91.6C146.9 92.2 147.2 92.7 147.6 93.1C147.9 93.4 148.2 93.6 148.5 93.8L150 94.8C150.5 95.1 151 95.5 151.3 96.1C151.6 96.6 151.7 97.1 151.7 97.6C151.7 98.2 151.6 98.7 151.3 99.3C151 99.8 150.6 100.3 150.1 100.6C149.6 100.9 148.9 101.1 148.3 101.1C147.9 101.1 147.5 101.1 147.2 101C146.8 100.7 146.4 100.6 146.1 100.4Z" fill="#DBAC17"/>
<path d="M165.5 88.6V89.6H163.4V100.8H162.1V89.6H160V88.6H165.5Z" fill="#DBAC17"/>
<path d="M177.1 88.6L179.9 100.8H178.5L178 98.3H175L174.5 100.8H173.1L175.8 88.6H177.1ZM175.2 97.3H177.7V96.8L177.6 96.2V95.8C177.6 95.7 177.6 95.6 177.5 95.3C177.4 95.1 177.5 94.8 177.3 94.5C177.1 94.2 177.2 93.8 177.1 93.5C176.9 92.6 176.8 92.1 176.8 91.8C176.8 91.5 176.7 91 176.5 90.1C176.5 90.4 176.4 90.8 176.3 91.1C176.2 91.4 176.3 91.7 176.2 92C176.1 92.3 176.2 92.6 176.1 92.8C176 93 176.1 93.4 175.9 93.8C175.7 94.2 175.9 94.3 175.7 94.6C175.5 94.9 175.6 95.2 175.6 95.5C175.6 95.8 175.6 96 175.5 96.3C175.4 96.6 175.4 96.9 175.2 97.3Z" fill="#DBAC17"/>
<path d="M188.4 88.6H189.7V97.5C189.7 98.1 189.8 98.7 190 99.3C190.2 99.7 190.7 100 191.2 99.9C191.6 99.9 191.9 99.8 192.3 99.6C192.6 99.4 192.7 99.1 192.8 98.8C192.9 98.3 192.9 97.8 192.9 97.3V88.6H194.2V97.2C194.2 97.9 194.1 98.5 194 99.2C193.9 99.7 193.6 100.2 193.2 100.5C192.7 100.9 192 101 191.4 101C190.8 101 190.2 100.9 189.6 100.6C189.2 100.3 188.8 99.9 188.7 99.4C188.5 98.8 188.4 98.1 188.4 97.4V88.6Z" fill="#DBAC17"/>
<path d="M204 88.6H205.8C206.3 88.6 206.9 88.6 207.4 88.7C207.9 88.8 208.3 89.2 208.6 89.6C209 90.2 209.2 91 209.1 91.7C209.2 92.5 208.9 93.3 208.4 94C207.9 94.5 207.2 94.8 206.4 94.8L209.5 100.7H208.2L205.3 94.8V100.7H204V88.6ZM205.2 89.6V93.9H205.7C206.1 93.9 206.6 93.8 207 93.7C207.3 93.6 207.5 93.3 207.6 93C207.7 92.6 207.8 92.1 207.8 91.7C207.9 91.1 207.7 90.5 207.3 90C206.9 89.7 206.4 89.5 205.8 89.6H205.2Z" fill="#DBAC17"/>
<path d="M221.3 88.6L224.1 100.8H222.7L222.2 98.3H219.3L218.8 100.8H217.4L220.1 88.6H221.3ZM219.5 97.3H222.1V96.8L222 96.2V95.8C222 95.7 222 95.6 221.9 95.3C221.8 95.1 221.9 94.8 221.7 94.5C221.5 94.2 221.6 93.8 221.5 93.5C221.3 92.6 221.2 92.1 221.2 91.8C221.2 91.5 221.1 91 220.9 90.1C220.9 90.4 220.8 90.8 220.7 91.1C220.6 91.4 220.7 91.7 220.6 92C220.5 92.3 220.6 92.6 220.5 92.8C220.4 93 220.5 93.4 220.3 93.8C220.1 94.2 220.3 94.3 220.1 94.6C219.9 94.9 220.1 95.2 220 95.5C219.9 95.8 220 96 219.9 96.3C219.8 96.6 219.8 96.9 219.7 97.3" fill="#DBAC17"/>
<path d="M237.4 88.6H238.5V100.8H237.4C237.2 100.2 237 99.6 236.7 98.8L236.3 97.8L236 97C236 96.8 235.7 96.3 235.5 95.6C235.1 94.6 234.7 93.5 234.3 92.6C234.1 92 233.9 91.5 233.8 90.9C233.9 91.7 233.9 92.5 233.9 93.3V100.7H232.7V88.5H233.8C233.8 88.6 234 89 234.2 89.5C234.4 90.1 234.6 90.6 234.8 91.1C234.8 91.1 234.9 91.4 235.1 91.8C235.2 92.2 235.3 92.5 235.4 92.7L235.7 93.5C235.7 93.8 235.9 94 235.9 94C236.5 95.6 236.8 96.6 237 96.9L237.5 98.3V97.7V97.1V96.4L237.4 88.6Z" fill="#DBAC17"/>
<path d="M252.8 88.6V89.6H250.7V100.8H249.5V89.6H247.4V88.6H252.8Z" fill="#DBAC17"/>
<path d="M275.6 94.3H278.8V96.6C278.8 97.4 278.7 98.2 278.5 99C278.4 99.5 278.1 100 277.6 100.4C277.1 100.7 276.5 100.9 275.9 100.9C275.2 101 274.5 100.8 273.9 100.3C273.4 99.9 273.1 99.4 272.9 98.9C272.7 98.3 272.6 97.7 272.5 97.1V95.1V94.1C272.5 93.3 272.5 92.6 272.6 92.1C272.7 91.5 272.8 90.9 273.1 90.3C273.3 89.7 273.7 89.3 274.1 88.9C274.6 88.5 275.2 88.3 275.9 88.4C276.6 88.4 277.2 88.6 277.7 89C278.2 89.5 278.5 90.1 278.7 90.7L277.5 91.2C277.3 90.1 276.8 89.6 276 89.6C275.2 89.5 274.5 90 274.3 90.8C274 91.7 273.9 92.6 273.9 93.6V93.9V94.3V95.2C273.9 96.3 274 97.3 274.3 98.4C274.5 99.3 274.9 99.8 275.5 99.9H276C276.5 100 277.1 99.7 277.3 99.2C277.5 98.6 277.6 98 277.6 97.4V95.4H275.7L275.6 94.3Z" fill="#DBAC17"/>
<path d="M288.1 88.6H289.9C290.4 88.6 291 88.6 291.5 88.7C292 88.8 292.4 89.2 292.7 89.6C293.1 90.2 293.3 91 293.2 91.7C293.3 92.5 293 93.3 292.5 94C292 94.5 291.3 94.8 290.5 94.8L293.5 100.7H292.2L289.3 94.8V100.7H288L288.1 88.6ZM289.4 89.6V93.9H289.9C290.3 93.9 290.8 93.8 291.2 93.7C291.5 93.6 291.7 93.3 291.8 93C291.9 92.6 292 92.1 292 91.7C292.1 91.1 291.9 90.5 291.5 90C291.1 89.7 290.6 89.5 290 89.6H289.4Z" fill="#DBAC17"/>
<path d="M302.2 95.8V95.2V93.9C302.2 93.1 302.3 92.2 302.4 91.4C302.5 90.6 302.9 89.8 303.3 89.2C303.8 88.5 304.7 88.2 305.5 88.2C306.3 88.2 307.1 88.5 307.7 89.1C308.2 89.7 308.5 90.3 308.7 91.1C308.8 91.9 308.9 92.7 309 93.5V95.6C309 96.9 308.7 98.1 308.2 99.3C308.1 99.6 307.8 99.9 307.6 100.1C307.3 100.3 307.1 100.5 306.7 100.6C306.3 100.7 306 100.8 305.6 100.8C304.6 100.9 303.6 100.3 303.2 99.4C302.6 98.3 302.3 97 302.2 95.8ZM307.7 94.2C307.7 93.4 307.7 92.5 307.5 91.7C307.4 91.1 307.2 90.5 306.9 90C306.6 89.6 306.1 89.4 305.6 89.4C305.2 89.4 304.9 89.5 304.6 89.7C304.2 90.1 303.9 90.6 303.9 91.1C303.7 92.2 303.5 93.2 303.6 94.3V94.9C303.6 96.1 303.8 97.2 304.1 98.3C304.3 99.1 305 99.7 305.8 99.7C306.6 99.7 307.1 99.2 307.4 98.3C307.7 97.2 307.8 96 307.8 94.9L307.7 94.2Z" fill="#DBAC17"/>
<path d="M318.3 88.6H319.6V97.5C319.6 98.1 319.7 98.7 319.9 99.3C320.1 99.7 320.6 100 321.1 99.9C321.5 99.9 321.8 99.8 322.2 99.6C322.5 99.4 322.6 99.1 322.7 98.8C322.8 98.3 322.9 97.8 322.8 97.3V88.6H324.1V97.2C324.1 97.9 324 98.5 323.9 99.2C323.8 99.7 323.5 100.2 323.1 100.5C322.6 100.9 321.9 101 321.3 101C320.7 101 320.1 100.9 319.5 100.6C319.1 100.3 318.7 99.9 318.6 99.4C318.4 98.8 318.4 98.1 318.4 97.4V88.6H318.3Z" fill="#DBAC17"/>
<path d="M333.8 88.6H335.6C336.3 88.5 337.1 88.7 337.7 89C338.1 89.2 338.5 89.6 338.7 90C338.9 90.5 338.9 91 339 91.6C339 92.2 338.9 92.9 338.7 93.4C338.5 93.8 338.3 94.2 337.9 94.4C337.6 94.6 337.2 94.7 336.8 94.8C336.4 94.9 336 94.9 335.5 94.9H335.1V100.8H333.8V88.6ZM335.1 89.6V93.9H335.8C336.3 93.9 336.8 93.8 337.2 93.5C337.6 93 337.8 92.4 337.7 91.8V91.4C337.7 91 337.6 90.7 337.4 90.3C337.3 90 337 89.8 336.8 89.7C336.4 89.6 335.9 89.5 335.5 89.5L335.1 89.6Z" fill="#DBAC17"/>
</svg>
