<svg width="22" height="16" viewBox="0 0 22 16" fill="none" xmlns="http://www.w3.org/2000/svg">
<path d="M0.799805 15.3002V13.0752C0.799805 12.5585 0.933138 12.1002 1.1998 11.7002C1.46647 11.3002 1.8248 10.9835 2.2748 10.7502C3.2248 10.3002 4.17914 9.9462 5.1378 9.6882C6.09581 9.42953 7.1498 9.3002 8.2998 9.3002C9.4498 9.3002 10.5041 9.42953 11.4628 9.6882C12.4208 9.9462 13.3748 10.3002 14.3248 10.7502C14.7748 10.9835 15.1331 11.3002 15.3998 11.7002C15.6665 12.1002 15.7998 12.5585 15.7998 13.0752V15.3002H0.799805ZM17.7998 15.3002V12.9502C17.7998 12.3002 17.6371 11.6792 17.3118 11.0872C16.9871 10.4959 16.5331 9.98353 15.9498 9.5502C16.6165 9.6502 17.2498 9.8042 17.8498 10.0122C18.4498 10.2209 19.0248 10.4669 19.5748 10.7502C20.0915 11.0335 20.4915 11.3629 20.7748 11.7382C21.0581 12.1129 21.1998 12.5169 21.1998 12.9502V15.3002H17.7998ZM8.2998 7.7002C7.33314 7.7002 6.50814 7.3542 5.8248 6.6622C5.14147 5.97086 4.7998 5.1502 4.7998 4.2002C4.7998 3.23353 5.14147 2.40853 5.8248 1.7252C6.50814 1.04186 7.33314 0.700195 8.2998 0.700195C9.26647 0.700195 10.0915 1.04186 10.7748 1.7252C11.4581 2.40853 11.7998 3.23353 11.7998 4.2002C11.7998 5.1502 11.4581 5.97086 10.7748 6.6622C10.0915 7.3542 9.26647 7.7002 8.2998 7.7002ZM13.4248 7.7002C13.4248 7.5502 13.3708 7.3752 13.2628 7.1752C13.1541 6.9752 13.0415 6.75853 12.9248 6.5252C13.2081 6.00853 13.3915 5.46253 13.4748 4.8872C13.5581 4.31253 13.5415 3.73353 13.4248 3.1502C13.4248 2.71686 13.3498 2.3002 13.1998 1.9002C13.0498 1.5002 12.8415 1.14186 12.5748 0.825195C13.0081 0.775195 13.3958 0.841862 13.7378 1.0252C14.0791 1.20853 14.3248 1.44186 14.4748 1.7252C15.1415 2.0252 15.6165 2.51686 15.8998 3.2002C16.1831 3.88353 16.1831 4.55853 15.8998 5.2252C15.8998 5.90853 15.6581 6.49186 15.1748 6.9752C14.6915 7.45853 14.1081 7.7002 13.4248 7.7002ZM2.2998 13.8002H14.2998V13.0752C14.2998 12.8752 14.2458 12.6919 14.1378 12.5252C14.0291 12.3585 13.8665 12.2169 13.6498 12.1002C12.8165 11.6835 11.9665 11.3625 11.0998 11.1372C10.2331 10.9125 9.2998 10.8002 8.2998 10.8002C7.2998 10.8002 6.36247 10.9125 5.4878 11.1372C4.61247 11.3625 3.76647 11.6835 2.9498 12.1002C2.71647 12.2169 2.5498 12.3585 2.4498 12.5252C2.3498 12.6919 2.2998 12.8752 2.2998 13.0752V13.8002ZM8.2998 6.2002C8.8498 6.2002 9.3208 6.0042 9.7128 5.6122C10.1041 5.22086 10.2998 4.7502 10.2998 4.2002C10.2998 3.6502 10.1041 3.1792 9.7128 2.7872C9.3208 2.39586 8.8498 2.2002 8.2998 2.2002C7.7498 2.2002 7.27914 2.39586 6.8878 2.7872C6.4958 3.1792 6.2998 3.6502 6.2998 4.2002C6.2998 4.7502 6.4958 5.22086 6.8878 5.6122C7.27914 6.0042 7.7498 6.2002 8.2998 6.2002Z" fill="black"/>
</svg>
