<svg width="28" height="28" viewBox="0 0 28 28" fill="none" xmlns="http://www.w3.org/2000/svg">
<path d="M12.9665 20.667H15.1665V12.667H12.9665V20.667ZM14.0001 10.1342C14.3334 10.1342 14.6113 10.023 14.8337 9.80059C15.0556 9.57819 15.1665 9.30033 15.1665 8.96699C15.1665 8.63366 15.0556 8.35046 14.8337 8.11739C14.6113 7.88379 14.3334 7.76699 14.0001 7.76699C13.6668 7.76699 13.3889 7.88379 13.1665 8.11739C12.9446 8.35046 12.8337 8.63366 12.8337 8.96699C12.8337 9.30033 12.9446 9.57819 13.1665 9.80059C13.3889 10.023 13.6668 10.1342 14.0001 10.1342ZM14.0001 27.3342C12.1558 27.3342 10.4281 26.9841 8.8169 26.2838C7.2057 25.5841 5.7945 24.6286 4.5833 23.4174C3.3721 22.2062 2.41664 20.795 1.7169 19.1838C1.01664 17.5726 0.666504 15.8449 0.666504 14.0006C0.666504 12.1563 1.01664 10.423 1.7169 8.80059C2.41664 7.17819 3.3721 5.76699 4.5833 4.56699C5.7945 3.36699 7.2057 2.41713 8.8169 1.71739C10.4281 1.01713 12.1558 0.666992 14.0001 0.666992C15.8444 0.666992 17.5777 1.01713 19.2001 1.71739C20.8225 2.41713 22.2337 3.36699 23.4337 4.56699C24.6337 5.76699 25.5836 7.17819 26.2833 8.80059C26.9836 10.423 27.3337 12.1563 27.3337 14.0006C27.3337 15.8449 26.9836 17.5726 26.2833 19.1838C25.5836 20.795 24.6337 22.2062 23.4337 23.4174C22.2337 24.6286 20.8225 25.5841 19.2001 26.2838C17.5777 26.9841 15.8444 27.3342 14.0001 27.3342Z" fill="#47C751"/>
</svg>
