<svg width="16" height="9" viewBox="0 0 16 9" fill="none" xmlns="http://www.w3.org/2000/svg">
<path d="M7.25 8.25H4.25C3.2125 8.25 2.32825 7.88425 1.59725 7.15275C0.86575 6.42175 0.5 5.5375 0.5 4.5C0.5 3.4625 0.86575 2.578 1.59725 1.8465C2.32825 1.1155 3.2125 0.75 4.25 0.75H7.25V2.25H4.25C3.625 2.25 3.09375 2.46875 2.65625 2.90625C2.21875 3.34375 2 3.875 2 4.5C2 5.125 2.21875 5.65625 2.65625 6.09375C3.09375 6.53125 3.625 6.75 4.25 6.75H7.25V8.25ZM5 5.25V3.75H11V5.25H5ZM8.75 8.25V6.75H11.75C12.375 6.75 12.9062 6.53125 13.3438 6.09375C13.7812 5.65625 14 5.125 14 4.5C14 3.875 13.7812 3.34375 13.3438 2.90625C12.9062 2.46875 12.375 2.25 11.75 2.25H8.75V0.75H11.75C12.7875 0.75 13.672 1.1155 14.4035 1.8465C15.1345 2.578 15.5 3.4625 15.5 4.5C15.5 5.5375 15.1345 6.42175 14.4035 7.15275C13.672 7.88425 12.7875 8.25 11.75 8.25H8.75Z" fill="black"/>
</svg>
