<svg width="36" height="36" viewBox="0 0 36 36" fill="none" xmlns="http://www.w3.org/2000/svg">
<mask id="mask0_719_19451" style="mask-type:alpha" maskUnits="userSpaceOnUse" x="0" y="0" width="36" height="36">
<rect width="36" height="36" fill="#D9D9D9"/>
</mask>
<g mask="url(#mask0_719_19451)">
<path d="M15.0004 17.8878C13.3504 17.8878 11.9815 17.3379 10.8937 16.2381C9.80646 15.1377 9.26286 13.7625 9.26286 12.1125C9.26286 10.4625 9.80646 9.0939 10.8937 8.0067C11.9815 6.9189 13.3504 6.375 15.0004 6.375C16.6504 6.375 18.019 6.9189 19.1062 8.0067C20.194 9.0939 20.7379 10.4625 20.7379 12.1125C20.7379 13.7625 20.194 15.1377 19.1062 16.2381C18.019 17.3379 16.6504 17.8878 15.0004 17.8878ZM2.99976 29.8875V26.1381C2.99976 25.2627 3.21846 24.4752 3.65586 23.7756C4.09386 23.0754 4.71276 22.5378 5.51256 22.1628C7.01256 21.4878 8.55636 20.9439 10.144 20.5311C11.7316 20.1189 13.3504 19.9128 15.0004 19.9128H15.9004C15.325 21.5628 15.1 23.2503 15.2254 24.9753C15.3502 26.7003 15.8002 28.3377 16.5754 29.8875H2.99976Z" fill="#F0B71C"/>
<mask id="mask1_719_19451" style="mask-type:alpha" maskUnits="userSpaceOnUse" x="17" y="14" width="18" height="18">
<rect x="17" y="14" width="18" height="18" fill="#D9D9D9"/>
</mask>
<g mask="url(#mask1_719_19451)">
<path d="M19.25 28.2503H20.5064V25.0814C20.5064 24.419 20.7376 23.8565 21.1999 23.3939C21.6625 22.9313 22.2188 22.7 22.8689 22.7H30.3686L27.5561 25.5314L28.4187 26.394L32.75 22.0812L28.4187 17.75L27.5561 18.6315L30.3686 21.444H22.8689C21.8813 21.444 21.0312 21.7971 20.3187 22.5033C19.6062 23.2095 19.25 24.0689 19.25 25.0814V28.2503Z" fill="#F0B71C"/>
</g>
</g>
</svg>
