<svg width="30" height="27" viewBox="0 0 30 27" fill="none" xmlns="http://www.w3.org/2000/svg">
<path d="M5.98989 8.49361L6.43462 8.29424C6.85225 7.58459 7.35529 6.93033 7.93218 6.34654C8.85682 5.40836 9.95477 4.66411 11.1633 4.15633C12.3717 3.64855 13.6671 3.38719 14.9752 3.38719C16.2834 3.38719 17.5788 3.64855 18.7872 4.15633C19.9957 4.66411 21.0937 5.40836 22.0183 6.34654C22.6031 6.93959 23.1114 7.60537 23.531 8.32798L24.6655 8.83715L26.7439 9.75732L26.8861 9.81866C26.1053 7.23386 24.5268 4.97134 22.383 3.36389C20.2392 1.75644 17.6432 0.888916 14.9768 0.888916C12.3103 0.888916 9.7143 1.75644 7.57049 3.36389C5.42667 4.97134 3.84825 7.23386 3.06738 9.81866L4.75554 9.06719L5.98989 8.49361Z" fill="#D8D8D8"/>
<path d="M23.013 19.45C22.7132 19.8683 22.3814 20.2621 22.0207 20.6278C20.1525 22.521 17.6191 23.5846 14.9776 23.5846C12.3361 23.5846 9.80277 22.521 7.93455 20.6278C7.57385 20.2621 7.24205 19.8683 6.94223 19.45L5.08465 20.275L4.61572 20.4836C5.75257 22.2146 7.29357 23.634 9.10179 24.6158C10.91 25.5976 12.9294 26.1113 14.9806 26.1113C17.0318 26.1113 19.0513 25.5976 20.8595 24.6158C22.6677 23.634 24.2087 22.2146 25.3456 20.4836L24.562 20.137L23.013 19.45Z" fill="#D8D8D8"/>
<path d="M6.66186 17.8978L6.18386 15.2079L6.30487 15.1527L7.98698 17.3089L10.1652 16.3428L9.21226 8.73291L7.3214 9.57334L7.64209 10.8217L8.33489 14.6588L8.21085 14.714L6.04469 11.6315L5.43659 10.5763L5.36096 10.4444L3.28555 11.3677L4.31418 12.7847L4.87387 16.1986L4.74984 16.2538L2.54434 12.9381L2.53526 12.9228L1.99069 11.9413L0 12.8277L2.96486 16.8335L4.47453 18.8702L6.13242 18.134L6.66186 17.8978Z" fill="#D8D8D8"/>
<path d="M17.511 9.47216C16.9362 8.83724 16.1224 8.53052 15.0756 8.53052C13.9159 8.53052 13.0213 8.87507 12.3921 9.56418C11.7628 10.2533 11.4492 11.2256 11.4512 12.4811C11.4512 13.659 11.7537 14.5638 12.3195 15.2048C12.8852 15.8459 13.7051 16.1588 14.7397 16.1588C15.8975 16.1588 16.792 15.8081 17.4233 15.1067C18.0546 14.4053 18.3682 13.4197 18.3642 12.1499C18.3642 10.9966 18.0747 10.104 17.4959 9.47216H17.511ZM15.9166 13.7663C15.8802 13.9816 15.7672 14.1758 15.599 14.3123C15.3971 14.4265 15.1672 14.4797 14.9364 14.4656C14.6872 14.4829 14.4393 14.416 14.2315 14.2755C14.0422 14.0958 13.9203 13.8552 13.8866 13.5945C13.8074 13.1215 13.7729 12.6418 13.7837 12.1621C13.7719 11.7846 13.8024 11.407 13.8745 11.0365C13.9113 10.8214 14.0256 10.628 14.1952 10.4936C14.3957 10.3788 14.6249 10.3255 14.8547 10.3402C15.1049 10.323 15.3537 10.3898 15.5627 10.5304C15.7514 10.7112 15.8723 10.9531 15.9045 11.2144C15.985 11.6832 16.0205 12.1588 16.0104 12.6345C16.021 13.0141 15.9895 13.3938 15.9166 13.7663Z" fill="#D8D8D8"/>
<path d="M28.1062 12.0025L27.4225 13.0913L27.4164 13.0975L25.1232 16.2199L24.9991 16.1647L25.7494 12.4564L26.1125 11.2326L24.4546 10.4014L24.0613 10.2296L23.7375 11.9595L21.6531 14.6986L21.529 14.6464L22.4215 10.751L22.7634 9.66215L20.7666 8.78491L19.4536 16.223L21.644 17.1861L23.2626 14.9961L23.3866 15.0513L22.9721 17.7658L23.8132 18.1339L25.1564 18.7228L27.0987 16.361L30.0001 12.8337L28.1062 12.0025Z" fill="#D8D8D8"/>
</svg>
