<svg width="28" height="28" viewBox="0 0 28 28" fill="none" xmlns="http://www.w3.org/2000/svg">
<path d="M14 28C6.2678 28 0 21.7322 0 14C0 6.2678 6.2678 0 14 0C21.7322 0 28 6.2678 28 14C28 21.7322 21.7322 28 14 28ZM14 25.2C16.9704 25.2 19.8192 24.02 21.9196 21.9196C24.02 19.8192 25.2 16.9704 25.2 14C25.2 11.0296 24.02 8.18081 21.9196 6.0804C19.8192 3.98 16.9704 2.8 14 2.8C11.0296 2.8 8.18081 3.98 6.0804 6.0804C3.98 8.18081 2.8 11.0296 2.8 14C2.8 16.9704 3.98 19.8192 6.0804 21.9196C8.18081 24.02 11.0296 25.2 14 25.2ZM7 21C7 19.1435 7.7375 17.363 9.05025 16.0503C10.363 14.7375 12.1435 14 14 14C15.8565 14 17.637 14.7375 18.9497 16.0503C20.2625 17.363 21 19.1435 21 21H18.2C18.2 19.8861 17.7575 18.8178 16.9698 18.0302C16.1822 17.2425 15.1139 16.8 14 16.8C12.8861 16.8 11.8178 17.2425 11.0302 18.0302C10.2425 18.8178 9.8 19.8861 9.8 21H7ZM8.4 12.6C7.84305 12.6 7.3089 12.3788 6.91508 11.9849C6.52125 11.5911 6.3 11.057 6.3 10.5C6.3 9.94305 6.52125 9.4089 6.91508 9.01508C7.3089 8.62125 7.84305 8.4 8.4 8.4C8.95695 8.4 9.4911 8.62125 9.88492 9.01508C10.2788 9.4089 10.5 9.94305 10.5 10.5C10.5 11.057 10.2788 11.5911 9.88492 11.9849C9.4911 12.3788 8.95695 12.6 8.4 12.6ZM19.6 12.6C19.043 12.6 18.5089 12.3788 18.1151 11.9849C17.7212 11.5911 17.5 11.057 17.5 10.5C17.5 9.94305 17.7212 9.4089 18.1151 9.01508C18.5089 8.62125 19.043 8.4 19.6 8.4C20.157 8.4 20.6911 8.62125 21.0849 9.01508C21.4787 9.4089 21.7 9.94305 21.7 10.5C21.7 11.057 21.4787 11.5911 21.0849 11.9849C20.6911 12.3788 20.157 12.6 19.6 12.6Z" fill="#D8D8D8"/>
</svg>
