<svg width="16" height="16" viewBox="0 0 16 16" fill="none" xmlns="http://www.w3.org/2000/svg">
<path d="M8 7.7002C7.03333 7.7002 6.20833 7.3542 5.525 6.6622C4.84167 5.97086 4.5 5.1502 4.5 4.2002C4.5 3.23353 4.84167 2.40853 5.525 1.7252C6.20833 1.04186 7.03333 0.700195 8 0.700195C8.96667 0.700195 9.79167 1.04186 10.475 1.7252C11.1583 2.40853 11.5 3.23353 11.5 4.2002C11.5 5.1502 11.1583 5.97086 10.475 6.6622C9.79167 7.3542 8.96667 7.7002 8 7.7002ZM0.5 15.3002V13.0752C0.5 12.5919 0.633333 12.1419 0.9 11.7252C1.16667 11.3085 1.525 10.9835 1.975 10.7502C2.95833 10.2669 3.95433 9.90419 4.963 9.6622C5.971 9.42086 6.98333 9.3002 8 9.3002C9.01667 9.3002 10.0293 9.42086 11.038 9.6622C12.046 9.90419 13.0417 10.2669 14.025 10.7502C14.475 10.9835 14.8333 11.3085 15.1 11.7252C15.3667 12.1419 15.5 12.5919 15.5 13.0752V15.3002H0.5Z" fill="black"/>
</svg>
