<svg width="15" height="22" viewBox="0 0 15 22" fill="none" xmlns="http://www.w3.org/2000/svg">
<path d="M3.5 8V6H11.5V8H3.5ZM2.5 22C1.95 22 1.47933 21.8043 1.088 21.413C0.696 21.021 0.5 20.55 0.5 20V2C0.5 1.45 0.696 0.979 1.088 0.587C1.47933 0.195667 1.95 0 2.5 0H12.5C13.05 0 13.521 0.195667 13.913 0.587C14.3043 0.979 14.5 1.45 14.5 2V20C14.5 20.55 14.3043 21.021 13.913 21.413C13.521 21.8043 13.05 22 12.5 22H2.5ZM2.5 17H12.5V5H2.5V17ZM2.5 19V20H12.5V19H2.5ZM2.5 3H12.5V2H2.5V3Z" fill="black"/>
</svg>
