<svg width="36" height="36" viewBox="0 0 36 36" fill="none" xmlns="http://www.w3.org/2000/svg">
<mask id="mask0_719_19445" style="mask-type:alpha" maskUnits="userSpaceOnUse" x="0" y="0" width="36" height="36">
<rect width="36" height="36" fill="#D9D9D9"/>
</mask>
<g mask="url(#mask0_719_19445)">
<path d="M15.0004 11.775H27.0379V9.2631H15.0004V11.775ZM15.0004 16.275H27.0379V13.7631H15.0004V16.275ZM15.0004 20.775H22.5001V18.2631H15.0004V20.775ZM10.5373 12.0378C10.9627 12.0378 11.3191 11.8941 11.6065 11.6067C11.8939 11.3193 12.0376 10.9629 12.0376 10.5375C12.0376 10.1127 11.8939 9.7566 11.6065 9.4692C11.3191 9.1818 10.9627 9.0381 10.5373 9.0381C10.1125 9.0381 9.75636 9.1818 9.46896 9.4692C9.18156 9.7566 9.03786 10.1127 9.03786 10.5375C9.03786 10.9629 9.18156 11.3193 9.46896 11.6067C9.75636 11.8941 10.1125 12.0378 10.5373 12.0378ZM10.5373 16.5378C10.9627 16.5378 11.3191 16.3941 11.6065 16.1067C11.8939 15.8193 12.0376 15.4629 12.0376 15.0375C12.0376 14.6127 11.8939 14.2566 11.6065 13.9692C11.3191 13.6818 10.9627 13.5381 10.5373 13.5381C10.1125 13.5381 9.75636 13.6818 9.46896 13.9692C9.18156 14.2566 9.03786 14.6127 9.03786 15.0375C9.03786 15.4629 9.18156 15.8193 9.46896 16.1067C9.75636 16.3941 10.1125 16.5378 10.5373 16.5378ZM10.5373 21.0378C10.9627 21.0378 11.3191 20.8941 11.6065 20.6067C11.8939 20.3193 12.0376 19.9629 12.0376 19.5375C12.0376 19.1127 11.8939 18.7566 11.6065 18.4692C11.3191 18.1818 10.9627 18.0381 10.5373 18.0381C10.1125 18.0381 9.75636 18.1818 9.46896 18.4692C9.18156 18.7566 9.03786 19.1127 9.03786 19.5375C9.03786 19.9629 9.18156 20.3193 9.46896 20.6067C9.75636 20.8941 10.1125 21.0378 10.5373 21.0378ZM2.99976 33.0006V5.5128C2.99976 4.8378 3.24996 4.2504 3.75036 3.7506C4.25016 3.2502 4.83756 3 5.51256 3H30.4876C31.1626 3 31.75 3.2502 32.2498 3.7506C32.7502 4.2504 33.0004 4.8378 33.0004 5.5128V24.4875C33.0004 25.1625 32.7502 25.7502 32.2498 26.2506C31.75 26.7504 31.1626 27.0003 30.4876 27.0003H9.00006L2.99976 33.0006Z" fill="#F0B71C"/>
</g>
</svg>
