<svg width="14" height="14" viewBox="0 0 14 14" fill="none" xmlns="http://www.w3.org/2000/svg">
<path d="M8.2376 0.625045V1.82475H1.9187C1.8437 1.82475 1.7843 1.84665 1.7405 1.89045C1.6967 1.93425 1.6748 1.98735 1.6748 2.04975V11.9497C1.6748 12.0121 1.6967 12.0652 1.7405 12.109C1.7843 12.1528 1.8437 12.1747 1.9187 12.1747H11.7998C11.8628 12.1747 11.9159 12.1528 11.9591 12.109C12.0029 12.0652 12.0248 12.0121 12.0248 11.9497V5.61195H13.2254V11.9497C13.2254 12.3499 13.0877 12.6874 12.8123 12.9622C12.5375 13.237 12.2 13.3744 11.7998 13.3744H1.9187C1.5191 13.3744 1.1786 13.237 0.897198 12.9622C0.615798 12.6874 0.475098 12.3499 0.475098 11.9497V2.04975C0.475098 1.64955 0.615798 1.31205 0.897198 1.03725C1.1786 0.762445 1.5191 0.625045 1.9187 0.625045H8.2376ZM11.9879 0.418945V1.88055H13.4504V3.08115H11.9879V4.54365H10.7873V3.08115H9.3248V1.88055H10.7873V0.418945H11.9879ZM2.9879 10.5061H10.7873L8.369 7.28055L6.2873 9.96255L4.8248 8.08695L2.9879 10.5061Z" fill="black"/>
</svg>
